<?xml version="1.0" encoding="UTF-8"?>
<svg width="28px" height="28px" viewBox="0 0 28 28" version="1.1" xmlns="http://www.w3.org/2000/svg" xmlns:xlink="http://www.w3.org/1999/xlink">
    <title>instagram</title>
    <defs>
        <filter id="filter-1">
            <feColorMatrix in="SourceGraphic" type="matrix" values="0 0 0 0 1.000000 0 0 0 0 1.000000 0 0 0 0 1.000000 0 0 0 1.000000 0"></feColorMatrix>
        </filter>
    </defs>
    <g id="Desktop" stroke="none" stroke-width="1" fill="none" fill-rule="evenodd">
        <g id="instagram" transform="translate(-307.000000, -3457.000000)" filter="url(#filter-1)">
            <g transform="translate(307.000000, 3457.000000)">
                <path d="M27.9288358,8.2321017 C27.863228,6.74434929 27.6225948,5.72153286 27.2778867,4.83524871 C26.9222796,3.89447981 26.3751917,3.05221066 25.6584212,2.35202906 C24.958106,1.6409505 24.1101198,1.08841173 23.1800704,0.738427727 C22.2884881,0.393785402 21.2708192,0.1531981 19.7827829,0.0876027991 C18.2836339,0.0164522245 17.8077102,0 14.0054495,0 C10.2031888,0 9.72726509,0.0164522245 8.23367247,0.0820475252 C6.74563619,0.147642826 5.72262459,0.388443725 4.83638497,0.732872453 C3.89522292,1.08841173 3.05279305,1.63539523 2.35247785,2.35202906 C1.64126362,3.05221066 1.08883305,3.90003508 0.738568627,4.82990704 C0.39386054,5.72153286 0.153227332,6.73879402 0.0876195146,8.22654642 C0.0164553637,9.72540938 0,10.2012423 0,14.0027776 C0,17.804313 0.0164553637,18.2801459 0.0820631808,19.7734536 C0.147670998,21.261206 0.388517844,22.2840224 0.733225931,23.1703066 C1.08883305,24.1110755 1.64126362,24.9533446 2.35247785,25.6535262 C3.05279305,26.3646048 3.90077925,26.9171435 4.83082863,27.2671275 C5.72262459,27.6117699 6.74007985,27.8523572 8.22832977,27.9179525 C9.72170875,27.9837614 10.1978461,28 14.0001068,28 C17.8023675,28 18.2782912,27.9837614 19.7718839,27.9179525 C21.2599201,27.8523572 22.2829317,27.6117699 23.1691714,27.2671275 C25.0512818,26.5395968 26.5393181,25.0518444 27.2669877,23.1703066 C27.6114822,22.2786807 27.852329,21.261206 27.9179368,19.7734536 C27.9835446,18.2801459 28,17.804313 28,14.0027776 C28,10.2012423 27.9944437,9.72540938 27.9288358,8.2321017 Z M25.4068889,19.6640569 C25.3466238,21.0315156 25.1168896,21.7699434 24.9254089,22.2622285 C24.4548279,23.4820444 23.4865251,24.4501625 22.2664764,24.9206538 C21.7740973,25.112098 21.030186,25.3417883 19.667809,25.4018284 C18.1906717,25.4676373 17.7476587,25.4838759 14.0110058,25.4838759 C10.274353,25.4838759 9.82578363,25.4676373 8.35398907,25.4018284 C6.98626939,25.3417883 6.24770077,25.112098 5.75532168,24.9206538 C5.14818233,24.6963051 4.59553812,24.3407658 4.14696879,23.8758298 C3.6819441,23.4217908 3.32633699,22.8748073 3.1019455,22.2677838 C2.91046475,21.7754986 2.68073057,21.0315156 2.62067909,19.6696122 C2.55485763,18.1927567 2.53861591,17.7496146 2.53861591,14.0136746 C2.53861591,10.2777346 2.55485763,9.8292508 2.62067909,8.35795062 C2.68073057,6.99049187 2.91046475,6.25206414 3.1019455,5.75977899 C3.32633699,5.15254186 3.6819441,4.60021669 4.15252513,4.15151934 C4.60643715,3.68658336 5.15352502,3.33104408 5.76087802,3.10690901 C6.2532571,2.91546478 6.99738206,2.68577443 8.35954541,2.62552081 C9.83668266,2.55992551 10.2799093,2.54347328 14.0163485,2.54347328 C17.7585578,2.54347328 18.2015708,2.55992551 19.6733653,2.62552081 C21.041085,2.68577443 21.7796536,2.91546478 22.2720327,3.10690901 C22.8791721,3.33104408 23.4318163,3.68658336 23.8803856,4.15151934 C24.3454103,4.60555836 24.7010174,5.15254186 24.9254089,5.75977899 C25.1168896,6.25206414 25.3466238,6.99583354 25.4068889,8.35795062 C25.4724968,9.83480608 25.4889521,10.2777346 25.4889521,14.0136746 C25.4889521,17.7496146 25.4724968,18.1872014 25.4068889,19.6640569 Z" id="Shape" fill="#000000" fill-rule="nonzero"></path>
                <path d="M14.35,7 C10.2922602,7 7,10.292042 7,14.35 C7,18.407958 10.2922602,21.7 14.35,21.7 C18.407958,21.7 21.7,18.407958 21.7,14.35 C21.7,10.292042 18.407958,7 14.35,7 Z M14.35,19.1177623 C11.7175454,19.1177623 9.58223772,16.9826729 9.58223772,14.35 C9.58223772,11.7173271 11.7175454,9.58223772 14.35,9.58223772 C16.9826729,9.58223772 19.1177623,11.7173271 19.1177623,14.35 C19.1177623,16.9826729 16.9826729,19.1177623 14.35,19.1177623 L14.35,19.1177623 Z" id="Shape" fill="#000000" fill-rule="nonzero"></path>
                <path d="M23.1,6.65 C23.1,7.61640793 22.3164578,8.4 21.3498887,8.4 C20.3835422,8.4 19.6,7.61640793 19.6,6.65 C19.6,5.68336941 20.3835422,4.9 21.3498887,4.9 C22.3164578,4.9 23.1,5.68336941 23.1,6.65 L23.1,6.65 Z" id="Path" fill="#000000" fill-rule="nonzero"></path>
            </g>
        </g>
    </g>
</svg>